<svg width="25" height="25" viewBox="0 0 25 25" fill="none" xmlns="http://www.w3.org/2000/svg">
<path d="M12.4993 8.61962C13.1806 8.61962 13.7329 8.0673 13.7329 7.38598C13.7329 6.70466 13.1806 6.15234 12.4993 6.15234C11.8179 6.15234 11.2656 6.70466 11.2656 7.38598C11.2656 8.0673 11.8179 8.61962 12.4993 8.61962Z" fill="#333333"/>
<path d="M12.5 1.24982C18.703 1.24982 23.7498 6.29662 23.7498 12.4996C23.7498 18.7027 18.703 23.7495 12.5 23.7495C6.29697 23.7495 1.24982 18.703 1.24982 12.4996C1.24982 6.29627 6.29662 1.24982 12.5 1.24982ZM12.5 0C5.59641 0 0 5.59641 0 12.5C0 19.4036 5.59641 25 12.5 25C19.4036 25 25 19.4036 25 12.5C25 5.59641 19.4032 0 12.5 0Z" fill="#333333"/>
<path d="M13.3748 10.3022H11.625V18.8469H13.3748V10.3022Z" fill="#333333"/>
</svg>
