<svg width="25" height="25" viewBox="0 0 25 25" fill="none" xmlns="http://www.w3.org/2000/svg">
<path d="M2.55344 19.3915C2.47969 19.3915 2.40619 19.3673 2.34594 19.322C2.26044 19.2578 2.21094 19.1563 2.21094 19.049V5.4708C2.21094 5.34305 2.28169 5.22655 2.39419 5.16705C2.47294 5.1263 4.36469 4.1543 7.35069 4.1543C9.09644 4.1543 10.8584 4.4893 12.5844 5.15105C12.7167 5.2018 12.8037 5.3288 12.8037 5.4708V19.049C12.8037 19.1583 12.7517 19.2613 12.6632 19.325C12.5747 19.39 12.4599 19.4075 12.3582 19.3753C12.3367 19.3685 10.2979 18.7313 7.45644 18.7313C5.78419 18.7313 4.16544 18.949 2.64569 19.3788C2.61494 19.3878 2.58419 19.3915 2.55344 19.3915ZM2.89594 5.6888V18.603C4.34744 18.2335 5.87919 18.0463 7.45644 18.0463C9.64644 18.0463 11.3494 18.4028 12.1187 18.598V5.70805C10.5427 5.13155 8.93869 4.83905 7.35069 4.83905C5.05644 4.8393 3.42419 5.4583 2.89594 5.6888Z" fill="#333333"/>
<path d="M22.3692 19.3915C22.3369 19.3915 22.3062 19.3875 22.2754 19.3788C20.7572 18.949 19.1382 18.7313 17.4647 18.7313C14.6152 18.7313 12.5844 19.3685 12.5642 19.3753C12.4599 19.4075 12.3462 19.39 12.2577 19.325C12.1694 19.261 12.1172 19.158 12.1172 19.049V5.4708C12.1172 5.32905 12.2054 5.2018 12.3379 5.15105C14.0637 4.48955 15.8242 4.1543 17.5702 4.1543C20.5562 4.1543 22.4479 5.12555 22.5267 5.16705C22.6404 5.22655 22.7114 5.34305 22.7114 5.4708V19.049C22.7114 19.1563 22.6604 19.2578 22.5749 19.322C22.5149 19.3675 22.4427 19.3915 22.3692 19.3915ZM17.4644 18.0465C19.0419 18.0465 20.5749 18.2338 22.0264 18.6033V5.6888C21.4982 5.45805 19.8647 4.8393 17.5702 4.8393C15.9822 4.8393 14.3794 5.13105 12.8022 5.7083V18.5983C13.5729 18.4028 15.2747 18.0465 17.4644 18.0465Z" fill="#333333"/>
<path d="M23.7974 20.8458H1.20188C1.01313 20.8458 0.859375 20.6925 0.859375 20.5035V6.40402C0.859375 6.21477 1.01313 6.06152 1.20188 6.06152H2.55163C2.74013 6.06152 2.89413 6.21452 2.89413 6.40402C2.89413 6.59352 2.74013 6.74652 2.55163 6.74652H1.54438V20.1608H23.4551V7.08702H22.3689C22.1789 7.08702 22.0264 6.93377 22.0264 6.74452C22.0264 6.55527 22.1789 6.40202 22.3689 6.40202H23.7976C23.9876 6.40202 24.1401 6.55527 24.1401 6.74452V20.5035C24.1401 20.6925 23.9874 20.8458 23.7974 20.8458Z" fill="#333333"/>
<path d="M12.4597 20.846C12.2709 20.846 12.1172 20.6928 12.1172 20.5038V19.0495C12.1172 18.8603 12.2709 18.707 12.4597 18.707C12.6497 18.707 12.8019 18.8603 12.8019 19.0495V20.5038C12.8019 20.6928 12.6497 20.846 12.4597 20.846Z" fill="#333333"/>
</svg>
