<svg width="25" height="25" viewBox="0 0 25 25" fill="none" xmlns="http://www.w3.org/2000/svg">
<path d="M16.3573 19.9479C13.8425 17.9268 13.1394 18.9202 11.998 20.0612C11.2015 20.8581 9.18547 19.194 7.44484 17.453C5.70422 15.712 4.04016 13.6964 4.83664 12.8995C5.97766 11.7585 6.97102 11.055 4.94914 8.54089C2.92805 6.02566 1.58078 7.95651 0.475703 9.06198C-0.800468 10.3378 0.408516 15.0917 5.10695 19.7909C9.80617 24.4893 14.5601 25.6975 15.8355 24.4221C16.9409 23.3171 18.8722 21.9702 16.3573 19.9479Z" fill="#333333"/>
<path d="M11.6938 15.8641C11.2555 15.8641 10.8426 15.6633 10.5664 15.3008C10.2219 14.8484 10.177 14.2566 10.4496 13.757C10.6137 13.457 10.748 13.141 10.8441 12.8344C9.0582 11.6078 8.00781 9.79023 8.00781 7.88125C8.00781 4.30117 11.6004 1.38867 16.016 1.38867C20.432 1.38867 24.0242 4.30117 24.0242 7.88125C24.0242 11.4613 20.432 14.3734 16.0164 14.3734C15.725 14.3734 15.4227 14.3578 15.1004 14.3262C14.3117 15.027 13.2809 15.5301 12.0297 15.8246C11.9176 15.8512 11.8047 15.8641 11.6938 15.8641ZM16.0164 2.87031C12.4176 2.87031 9.49023 5.11797 9.49023 7.88086C9.49023 9.44453 10.4293 10.8934 12.0668 11.8566L12.5129 12.1191L12.4203 12.6285C12.3172 13.1922 12.1074 13.7863 11.8113 14.3531C12.8754 14.0855 13.716 13.6418 14.3109 13.0328L14.5691 12.7688L14.9352 12.816C15.3309 12.8668 15.6844 12.8918 16.0164 12.8918C19.6152 12.8918 22.543 10.6441 22.543 7.88125C22.543 5.11836 19.6152 2.87031 16.0164 2.87031Z" fill="#333333"/>
<path d="M12.3422 9.1458C13.0705 9.1458 13.6609 8.55538 13.6609 7.82705C13.6609 7.09873 13.0705 6.5083 12.3422 6.5083C11.6139 6.5083 11.0234 7.09873 11.0234 7.82705C11.0234 8.55538 11.6139 9.1458 12.3422 9.1458Z" fill="#333333"/>
<path d="M16.0141 9.1458C16.7424 9.1458 17.3328 8.55538 17.3328 7.82705C17.3328 7.09873 16.7424 6.5083 16.0141 6.5083C15.2857 6.5083 14.6953 7.09873 14.6953 7.82705C14.6953 8.55538 15.2857 9.1458 16.0141 9.1458Z" fill="#333333"/>
<path d="M19.6898 9.1458C20.4182 9.1458 21.0086 8.55538 21.0086 7.82705C21.0086 7.09873 20.4182 6.5083 19.6898 6.5083C18.9615 6.5083 18.3711 7.09873 18.3711 7.82705C18.3711 8.55538 18.9615 9.1458 19.6898 9.1458Z" fill="#333333"/>
</svg>
