<svg width="24" height="24" viewBox="0 0 24 24" fill="none" xmlns="http://www.w3.org/2000/svg">
<g clip-path="url(#clip0_735_37372)">
<path d="M21.9011 6.65971L22.7111 5.84971C22.872 5.71595 23.0032 5.55 23.0962 5.36251C23.1892 5.17502 23.2419 4.97016 23.2509 4.76108C23.26 4.552 23.2252 4.34334 23.1488 4.1485C23.0724 3.95367 22.9561 3.77698 22.8074 3.62979C22.6586 3.48261 22.4807 3.36817 22.285 3.29386C22.0894 3.21954 21.8804 3.18698 21.6714 3.19828C21.4624 3.20957 21.2581 3.26447 21.0717 3.35944C20.8852 3.45441 20.7206 3.58735 20.5886 3.74971L12.0011 12.3147L8.55859 8.87221C8.27712 8.59075 7.89538 8.43263 7.49734 8.43263C7.09929 8.43263 6.71755 8.59075 6.43609 8.87221C6.15462 9.15367 5.9965 9.53542 5.9965 9.93346C5.9965 10.3315 6.15462 10.7133 6.43609 10.9947L10.9361 15.4947C11.2171 15.7741 11.5973 15.9309 11.9936 15.9309C12.3899 15.9309 12.77 15.7741 13.0511 15.4947L19.6436 8.90971C20.3644 10.711 20.4272 12.7088 19.8211 14.5519C19.215 16.3949 17.9787 17.9654 16.3294 18.9874C14.6802 20.0093 12.7235 20.4173 10.8033 20.1396C8.88312 19.8619 7.1222 18.9164 5.83001 17.4692C4.53781 16.0219 3.79703 14.1655 3.73783 12.2262C3.67863 10.287 4.30481 8.38886 5.50632 6.86549C6.70783 5.34211 8.40781 4.29093 10.3075 3.89666C12.2072 3.5024 14.1851 3.79028 15.8936 4.70971C16.2366 4.83307 16.6128 4.8273 16.9519 4.69349C17.2909 4.55968 17.5697 4.30698 17.736 3.98261C17.9023 3.65825 17.9448 3.28443 17.8556 2.931C17.7663 2.57758 17.5514 2.26874 17.2511 2.06221C14.8646 0.805083 12.106 0.447221 9.47774 1.05384C6.84952 1.66046 4.52674 3.19117 2.93266 5.36705C1.33858 7.54292 0.579336 10.2191 0.79327 12.9079C1.0072 15.5967 2.18008 18.1192 4.09817 20.0156C6.01625 21.9121 8.55186 23.0562 11.2429 23.2396C13.934 23.423 16.6014 22.6334 18.759 21.0147C20.9167 19.3961 22.4209 17.056 22.9977 14.4211C23.5744 11.7862 23.1852 9.03173 21.9011 6.65971Z" fill="#333333"/>
</g>
<defs>
<clipPath id="clip0_735_37372">
<rect width="24" height="24" fill="white"/>
</clipPath>
</defs>
</svg>
