<svg width="23" height="23" viewBox="0 0 23 23" fill="none" xmlns="http://www.w3.org/2000/svg">
<rect x="0.25" y="0.25" width="22.5" height="22.5" rx="4.75" fill="white"/>
<rect x="0.25" y="0.25" width="22.5" height="22.5" rx="4.75" stroke="#333333" stroke-width="0.5"/>
<path d="M19.0237 11.6377C18.6557 11.6377 18.3337 11.9367 18.3337 12.3277V16.2147C18.3337 17.3877 17.3677 18.3537 16.1947 18.3537H6.71866C5.54566 18.3537 4.57966 17.3877 4.57966 16.2147V6.73873C4.57966 5.56573 5.54566 4.59973 6.71866 4.59973H10.6057C10.9737 4.59973 11.2957 4.30073 11.2957 3.90973C11.2957 3.54173 10.9967 3.21973 10.6057 3.21973H6.71866C4.78666 3.21973 3.22266 4.78373 3.22266 6.71573V16.1917C3.22266 18.1237 4.78666 19.6877 6.71866 19.6877H16.1947C18.1267 19.6877 19.6907 18.1237 19.6907 16.1917V12.3277C19.6907 11.9597 19.3917 11.6377 19.0237 11.6377Z" fill="#606060"/>
<path d="M10.007 10.0734L9.22498 12.9024C9.13298 13.2704 9.33998 13.6384 9.68498 13.7534C9.73098 13.7764 9.79998 13.7764 9.86898 13.7764C9.93798 13.7764 10.007 13.7764 10.076 13.7534L12.905 12.9714C12.997 12.9484 13.089 12.8794 13.204 12.8104L19 7.06038C19.828 6.23238 19.828 4.87538 19 4.04738C18.586 3.63338 18.034 3.40338 17.459 3.42638C16.884 3.42638 16.355 3.65638 15.964 4.04738L10.214 9.79738C10.122 9.82038 10.053 9.91238 10.007 10.0734ZM11.64 10.2114L16.884 4.96738C17.206 4.69138 17.689 4.73738 17.965 5.03638C18.218 5.33538 18.218 5.74938 17.965 6.04838L12.721 11.2924L11.64 10.2114ZM10.835 12.0974L10.996 11.5224L11.433 11.9594L10.835 12.0974Z" fill="#606060"/>
</svg>
