<svg width="25" height="25" viewBox="0 0 25 25" fill="none" xmlns="http://www.w3.org/2000/svg">
<path d="M12.4987 22.9163C18.2517 22.9163 22.9154 18.2526 22.9154 12.4997C22.9154 6.74671 18.2517 2.08301 12.4987 2.08301C6.74573 2.08301 2.08203 6.74671 2.08203 12.4997C2.08203 18.2526 6.74573 22.9163 12.4987 22.9163Z" stroke="#333333" stroke-width="2" stroke-linecap="round" stroke-linejoin="round"/>
<path d="M9.46875 9.3751C9.71365 8.67893 10.197 8.09188 10.8333 7.71795C11.4695 7.34402 12.2176 7.20733 12.945 7.3321C13.6724 7.45686 14.3321 7.83503 14.8074 8.39961C15.2826 8.9642 15.5428 9.67877 15.5417 10.4168C15.5417 12.5001 12.4167 13.5418 12.4167 13.5418" stroke="#333333" stroke-width="2" stroke-linecap="round" stroke-linejoin="round"/>
<path d="M12.5 17.7085H12.5104" stroke="#333333" stroke-width="2" stroke-linecap="round" stroke-linejoin="round"/>
</svg>
