<svg width="25" height="25" viewBox="0 0 25 25" fill="none" xmlns="http://www.w3.org/2000/svg">
<path d="M15.3961 14.2914C15.7016 14.5969 15.7016 15.0906 15.3961 15.3961C15.2438 15.5484 15.0437 15.625 14.8438 15.625C14.6438 15.625 14.4437 15.5484 14.2914 15.3961L11.9477 13.0523C11.8008 12.9063 11.7188 12.707 11.7188 12.5V7.03125C11.7188 6.6 12.0688 6.25 12.5 6.25C12.9312 6.25 13.2812 6.6 13.2812 7.03125V12.1766L15.3961 14.2914ZM20.2336 20.2336C20.2258 20.2414 20.2148 20.2445 20.2063 20.2516C18.2281 22.2195 15.5039 23.4375 12.5 23.4375C9.49609 23.4375 6.77188 22.2195 4.79375 20.2523C4.78516 20.2445 4.77422 20.2422 4.76641 20.2344C4.75859 20.2266 4.75547 20.2156 4.74844 20.207C2.78047 18.2281 1.5625 15.5039 1.5625 12.5C1.5625 9.49609 2.78047 6.77188 4.74766 4.79375C4.75547 4.78516 4.75781 4.77422 4.76562 4.76641C4.77344 4.75859 4.78438 4.75547 4.79297 4.74844C6.77188 2.78047 9.49609 1.5625 12.5 1.5625C15.5039 1.5625 18.2281 2.78047 20.2063 4.74766C20.2148 4.75547 20.2258 4.75781 20.2336 4.76562C20.2414 4.77344 20.2445 4.78438 20.2516 4.79297C22.2195 6.77188 23.4375 9.49609 23.4375 12.5C23.4375 15.5039 22.2195 18.2281 20.2523 20.2063C20.2445 20.2148 20.2422 20.2258 20.2336 20.2336ZM19.6523 18.5477C20.8781 17.1008 21.6695 15.2797 21.8359 13.2812H21.0938C20.6617 13.2812 20.3125 12.9312 20.3125 12.5C20.3125 12.0688 20.6617 11.7188 21.0938 11.7188H21.8352C21.6687 9.72031 20.8773 7.9 19.6516 6.45234L19.1289 6.975C18.9766 7.12734 18.7766 7.20391 18.5766 7.20391C18.3766 7.20391 18.1766 7.12734 18.0242 6.975C17.7188 6.66953 17.7188 6.17578 18.0242 5.87031L18.5469 5.34766C17.1 4.12266 15.2797 3.33047 13.2812 3.16484V3.90625C13.2812 4.3375 12.9312 4.6875 12.5 4.6875C12.0688 4.6875 11.7188 4.3375 11.7188 3.90625V3.16484C9.72031 3.33125 7.9 4.12266 6.45234 5.34844L6.975 5.87109C7.28047 6.17656 7.28047 6.67031 6.975 6.97578C6.82266 7.12812 6.62344 7.20469 6.42344 7.20469C6.22344 7.20469 6.02344 7.12812 5.87109 6.97578L5.34766 6.45234C4.12266 7.9 3.33047 9.72031 3.16484 11.7188H3.90625C4.3375 11.7188 4.6875 12.0688 4.6875 12.5C4.6875 12.9312 4.3375 13.2812 3.90625 13.2812H3.16484C3.33125 15.2797 4.12266 17.1 5.34844 18.5477L5.87109 18.025C6.17656 17.7195 6.67031 17.7195 6.97578 18.025C7.28125 18.3305 7.28125 18.8242 6.97578 19.1297L6.45312 19.6523C7.9 20.8781 9.72109 21.6695 11.7195 21.8359V21.0938C11.7195 20.6617 12.0695 20.3125 12.5008 20.3125C12.932 20.3125 13.282 20.6617 13.282 21.0938V21.8352C15.2805 21.6687 17.1016 20.8773 18.5484 19.6516L18.0258 19.1289C17.7203 18.8234 17.7203 18.3297 18.0258 18.0242C18.3312 17.7188 18.825 17.7188 19.1305 18.0242L19.6523 18.5477Z" fill="#333333"/>
</svg>
