<svg width="13" height="13" viewBox="0 0 13 13" fill="none" xmlns="http://www.w3.org/2000/svg">
<path d="M6.50111 4.4822C6.8554 4.4822 7.1426 4.195 7.1426 3.84071C7.1426 3.48642 6.8554 3.19922 6.50111 3.19922C6.14682 3.19922 5.85962 3.48642 5.85962 3.84071C5.85962 4.195 6.14682 4.4822 6.50111 4.4822Z" fill="#333333"/>
<path d="M6.5 0.649908C9.72557 0.649908 12.3499 3.27424 12.3499 6.49982C12.3499 9.72539 9.72557 12.3497 6.5 12.3497C3.27443 12.3497 0.649908 9.72557 0.649908 6.49982C0.649908 3.27406 3.27424 0.649908 6.5 0.649908ZM6.5 0C2.91013 0 0 2.91013 0 6.5C0 10.0899 2.91013 13 6.5 13C10.0899 13 13 10.0899 13 6.5C13 2.91013 10.0897 0 6.5 0Z" fill="#333333"/>
<path d="M6.95556 5.35742H6.04565V9.80066H6.95556V5.35742Z" fill="#333333"/>
</svg>
