<svg width="25" height="25" viewBox="0 0 25 25" fill="none" xmlns="http://www.w3.org/2000/svg">
<path d="M9.67566 21.7805H13.687C13.8954 21.7805 14.0658 21.6101 14.0658 21.4017C14.0658 21.1934 13.8954 21.0229 13.687 21.0229H9.67566C9.46733 21.0229 9.29688 21.1934 9.29688 21.4017C9.29688 21.6101 9.46733 21.7805 9.67566 21.7805Z" fill="#333333"/>
<path d="M11.5456 9.84456L6.27285 11.4127C6.11375 11.462 6.00391 11.6097 6.00391 11.7764C6.00391 11.943 6.11375 12.0908 6.27285 12.14L7.96603 12.6438V14.9241C7.96603 14.9696 7.96982 15.015 7.98118 15.0908C8.07588 15.5794 8.54936 15.9468 9.38648 16.1779C9.39406 16.1817 9.40163 16.1817 9.413 16.1855C10.0494 16.3597 10.8638 16.4468 11.6744 16.4468C12.485 16.4468 13.2918 16.3597 13.9319 16.1855C13.9433 16.1817 13.9585 16.1817 13.9698 16.1779C14.8107 15.943 15.2842 15.5794 15.3865 15.0567C15.3903 15.0112 15.3941 14.9696 15.3941 14.9241V12.64L16.5948 12.284V13.9658C16.5948 14.1741 16.7653 14.3446 16.9736 14.3446C17.1819 14.3446 17.3524 14.1741 17.3524 13.9658V11.784V11.7802C17.3524 11.7764 17.3524 11.7764 17.3524 11.7726C17.3524 11.6059 17.2425 11.4582 17.0835 11.409L11.841 9.84835C11.7577 9.81426 11.6327 9.81805 11.5456 9.84456ZM14.6365 14.9241C14.6365 14.9355 14.6365 14.9468 14.6365 14.9468C14.61 15.0718 14.3751 15.2726 13.7956 15.4393C13.7842 15.4393 13.7728 15.443 13.7615 15.4468C12.61 15.765 10.7463 15.7688 9.5986 15.4468C9.59103 15.443 9.58345 15.443 9.57209 15.4393C8.98875 15.2726 8.75012 15.068 8.73118 14.9696C8.73118 14.9544 8.72739 14.9355 8.72739 14.9203V12.8635L11.4963 13.6855C11.538 13.7044 11.5835 13.7196 11.6327 13.7234C11.6554 13.7271 11.6744 13.7309 11.6971 13.7309C11.7615 13.7309 11.8259 13.712 11.8865 13.6817L14.6403 12.8635V14.9241H14.6365ZM11.6781 12.9582L7.70845 11.7764L11.6781 10.5946L15.6441 11.7764L11.6781 12.9582Z" fill="#333333"/>
<path d="M23.8827 1.97705H15.9547C15.5456 1.97705 15.216 2.31038 15.216 2.71569V5.75735H3.01527C2.33724 5.75735 1.78421 6.31038 1.78421 6.98841V19.7763H0.757694C0.549361 19.7763 0.378906 19.9467 0.378906 20.1551C0.378906 21.7346 1.66679 23.0225 3.25012 23.0225H20.11C21.6933 23.0225 22.9812 21.7346 22.9812 20.1551C22.9812 19.9467 22.8107 19.7763 22.6024 19.7763H21.5759V8.84448H23.8827C24.2918 8.84448 24.6213 8.51114 24.6213 8.10584V2.71569C24.6213 2.31038 24.288 1.97705 23.8827 1.97705ZM15.6213 10.1437C15.7274 10.1967 15.841 10.2233 15.9547 10.2233C16.11 10.2233 16.2615 10.174 16.3941 10.0793L18.0607 8.84826H18.7691V18.0869H4.59103V8.56417H15.216V9.48463C15.216 9.76493 15.3713 10.0149 15.6213 10.1437ZM20.11 22.2649H3.25012C2.21603 22.2649 1.35239 21.5187 1.17057 20.5339H22.1895C22.0077 21.5187 21.1441 22.2649 20.11 22.2649ZM20.8145 19.7763H2.54557V6.98841C2.54557 6.72705 2.75769 6.51493 3.01906 6.51493H15.2198V7.8066H4.21224C4.00391 7.8066 3.83345 7.97705 3.83345 8.18538V18.4619C3.83345 18.6702 4.00391 18.8407 4.21224 18.8407H19.1478C19.3562 18.8407 19.5266 18.6702 19.5266 18.4619V8.84448H20.8183V19.7763H20.8145ZM18.0607 8.0869C17.9016 8.0869 17.7501 8.13614 17.6213 8.23084L15.9736 9.48084L15.9698 8.19296C15.9698 8.18917 15.9736 8.18538 15.9736 8.1816C15.9736 8.17781 15.9698 8.17402 15.9698 8.17023L15.9547 2.73463H23.8638L23.8827 8.0869H18.0607Z" fill="#333333"/>
<path d="M22.5833 4.27637H17.2538C17.0455 4.27637 16.875 4.44682 16.875 4.65516C16.875 4.86349 17.0455 5.03394 17.2538 5.03394H22.5833C22.7917 5.03394 22.9621 4.86349 22.9621 4.65516C22.9621 4.44682 22.7917 4.27637 22.5833 4.27637Z" fill="#333333"/>
<path d="M20.3106 5.82178H17.2538C17.0455 5.82178 16.875 5.99223 16.875 6.20057C16.875 6.4089 17.0455 6.57935 17.2538 6.57935H20.3106C20.5189 6.57935 20.6894 6.4089 20.6894 6.20057C20.6894 5.99223 20.5189 5.82178 20.3106 5.82178Z" fill="#333333"/>
</svg>
