<svg width="25" height="29" viewBox="0 0 25 29" fill="none" xmlns="http://www.w3.org/2000/svg">
<path d="M0.839855 0.00127266C0.382405 0.0492194 -0.00244815 0.478823 1.17273e-05 0.938772V24.0638C6.07898e-05 24.5546 0.446651 25.0012 0.937511 25.0013H13.3398C14.4242 26.8671 16.4461 28.1263 18.75 28.1263C22.1907 28.1263 25 25.317 25 21.8763C25 18.4356 22.1907 15.6263 18.75 15.6263V0.938772C18.75 0.447912 18.3034 0.00132175 17.8125 0.00127266H0.937511C0.904989 -0.000424219 0.872378 -0.000424219 0.839855 0.00127266ZM1.87501 1.87627H16.875V15.9192C15.3762 16.3934 14.117 17.4141 13.3398 18.7513H4.06251C4.02998 18.7496 3.99738 18.7496 3.96485 18.7513C3.84172 18.7577 3.72106 18.7882 3.60975 18.8413C3.49844 18.8943 3.39867 18.9687 3.31613 19.0603C3.2336 19.1519 3.16991 19.2589 3.12871 19.3751C3.08751 19.4913 3.06961 19.6145 3.07602 19.7376C3.08243 19.8607 3.11304 19.9814 3.16609 20.0927C3.21913 20.204 3.29359 20.3037 3.38519 20.3863C3.4768 20.4688 3.58376 20.5325 3.69998 20.5736C3.81619 20.6148 3.93938 20.6327 4.06251 20.6263H12.627C12.5446 21.0296 12.5 21.4494 12.5 21.8763C12.5 22.3031 12.5446 22.723 12.627 23.1263H1.87501V1.87627ZM3.96485 4.68877C3.84172 4.69516 3.72106 4.72575 3.60975 4.77878C3.49844 4.8318 3.39867 4.90624 3.31613 4.99783C3.2336 5.08942 3.16991 5.19638 3.12871 5.31259C3.08751 5.42879 3.06961 5.55198 3.07602 5.67511C3.08243 5.79823 3.11304 5.91889 3.16609 6.03019C3.21913 6.14149 3.29359 6.24125 3.38519 6.32377C3.4768 6.40629 3.58376 6.46996 3.69998 6.51114C3.81619 6.55232 3.93938 6.5702 4.06251 6.56377H14.6875C14.8117 6.56553 14.9351 6.54258 15.0504 6.49625C15.1656 6.44992 15.2706 6.38115 15.359 6.29392C15.4475 6.20669 15.5178 6.10275 15.5657 5.98813C15.6137 5.87352 15.6384 5.75051 15.6384 5.62627C15.6384 5.50203 15.6137 5.37902 15.5657 5.26441C15.5178 5.14979 15.4475 5.04585 15.359 4.95862C15.2706 4.87139 15.1656 4.80262 15.0504 4.75629C14.9351 4.70996 14.8117 4.68701 14.6875 4.68877H4.06251C4.02998 4.68707 3.99738 4.68707 3.96485 4.68877ZM3.96485 9.37627C3.84172 9.38266 3.72106 9.41324 3.60975 9.46627C3.49844 9.5193 3.39867 9.59374 3.31613 9.68533C3.2336 9.77692 3.16991 9.88388 3.12871 10.0001C3.08751 10.1163 3.06961 10.2395 3.07602 10.3626C3.08243 10.4857 3.11304 10.6064 3.16609 10.7177C3.21913 10.829 3.29359 10.9287 3.38519 11.0113C3.4768 11.0938 3.58376 11.1575 3.69998 11.1986C3.81619 11.2398 3.93938 11.2577 4.06251 11.2513H14.6875C14.8117 11.253 14.9351 11.2301 15.0504 11.1837C15.1656 11.1374 15.2706 11.0686 15.359 10.9814C15.4475 10.8942 15.5178 10.7902 15.5657 10.6756C15.6137 10.561 15.6384 10.438 15.6384 10.3138C15.6384 10.1895 15.6137 10.0665 15.5657 9.95191C15.5178 9.83729 15.4475 9.73335 15.359 9.64612C15.2706 9.55889 15.1656 9.49011 15.0504 9.44379C14.9351 9.39746 14.8117 9.37451 14.6875 9.37627H4.06251C4.02998 9.37457 3.99738 9.37457 3.96485 9.37627ZM3.96485 14.0638C3.84172 14.0702 3.72106 14.1007 3.60975 14.1538C3.49844 14.2068 3.39867 14.2812 3.31613 14.3728C3.2336 14.4644 3.16991 14.5714 3.12871 14.6876C3.08751 14.8038 3.06961 14.927 3.07602 15.0501C3.08243 15.1732 3.11304 15.2939 3.16609 15.4052C3.21913 15.5165 3.29359 15.6162 3.38519 15.6988C3.4768 15.7813 3.58376 15.845 3.69998 15.8861C3.81619 15.9273 3.93938 15.9452 4.06251 15.9388H14.6875C14.8117 15.9405 14.9351 15.9176 15.0504 15.8712C15.1656 15.8249 15.2706 15.7561 15.359 15.6689C15.4475 15.5817 15.5178 15.4777 15.5657 15.3631C15.6137 15.2485 15.6384 15.1255 15.6384 15.0013C15.6384 14.877 15.6137 14.754 15.5657 14.6394C15.5178 14.5248 15.4475 14.4208 15.359 14.3336C15.2706 14.2464 15.1656 14.1776 15.0504 14.1313C14.9351 14.085 14.8117 14.062 14.6875 14.0638H4.06251C4.02998 14.0621 3.99738 14.0621 3.96485 14.0638ZM18.75 17.5013C21.1774 17.5013 23.125 19.4489 23.125 21.8763C23.125 24.3036 21.1774 26.2513 18.75 26.2513C16.3226 26.2513 14.375 24.3036 14.375 21.8763C14.375 19.4489 16.3226 17.5013 18.75 17.5013ZM20.5078 19.3665C20.2682 19.4011 20.0512 19.5271 19.9023 19.7181L17.7441 22.3548L17.2266 21.8372C17.1423 21.7407 17.0391 21.6624 16.9233 21.6073C16.8076 21.5522 16.6818 21.5215 16.5537 21.5169C16.4256 21.5123 16.298 21.5341 16.1786 21.5808C16.0593 21.6275 15.9508 21.6982 15.8598 21.7885C15.7688 21.8788 15.6973 21.9867 15.6498 22.1058C15.6022 22.2248 15.5795 22.3523 15.5831 22.4804C15.5867 22.6085 15.6166 22.7345 15.6708 22.8506C15.7251 22.9668 15.8025 23.0705 15.8984 23.1556L17.1484 24.4056C17.241 24.4979 17.3518 24.5699 17.4738 24.6169C17.5959 24.6639 17.7263 24.6848 17.8569 24.6784C17.9875 24.6719 18.1153 24.6383 18.2321 24.5795C18.3489 24.5208 18.4521 24.4382 18.5352 24.3372L21.3477 20.8997C21.4694 20.7551 21.5445 20.577 21.5632 20.3889C21.5819 20.2008 21.5433 20.0114 21.4525 19.8456C21.3617 19.6798 21.2229 19.5454 21.0543 19.4599C20.8857 19.3744 20.6952 19.3418 20.5078 19.3665Z" fill="#333333"/>
</svg>
