<svg width="28" height="28" viewBox="0 0 28 28" fill="none" xmlns="http://www.w3.org/2000/svg">
<path d="M21.2763 11.6535H20.5847L20.5819 8.2067C20.5791 4.4519 17.5243 1.3971 13.7695 1.3999C10.0147 1.4027 6.95992 4.4575 6.96272 8.2123L6.96832 11.6591H6.72192C5.43112 11.6619 4.38392 12.7091 4.38672 13.9999V24.2619C4.38672 25.5527 5.43672 26.5999 6.72752 26.5999L21.2819 26.5915C22.5727 26.5915 23.6199 25.5443 23.6171 24.2535V13.9887C23.6171 12.6979 22.5671 11.6535 21.2763 11.6535ZM9.47712 11.6591L9.47152 8.2123C9.47152 5.8407 11.3979 3.9115 13.7695 3.9087C16.1411 3.9087 18.0703 5.8379 18.0703 8.2067L18.0759 11.6535L9.47712 11.6591Z" fill="#333333"/>
</svg>
