<svg width="26" height="26" viewBox="0 0 26 26" fill="none" xmlns="http://www.w3.org/2000/svg">
<path d="M4.38073 18.6384H10.8456C11.2422 18.6384 11.5641 18.3191 11.5641 17.9243C11.5641 17.5295 11.2425 17.2102 10.8456 17.2102H4.38073C3.19242 17.2102 2.22567 16.2492 2.22567 15.068V4.35822C2.22567 3.17704 3.19242 2.21608 4.38073 2.21608H20.9024C22.0908 2.21608 23.0575 3.17704 23.0575 4.35822V10.7843C23.0575 11.1791 23.3791 11.4985 23.776 11.4985C24.1728 11.4985 24.4944 11.1791 24.4944 10.7843V4.35822C24.4944 2.38977 22.8831 0.788086 20.9027 0.788086H4.38073C2.40041 0.788086 0.789062 2.38977 0.789062 4.35822V15.0686C0.789062 17.0368 2.40041 18.6384 4.38073 18.6384Z" fill="black"/>
<path d="M16.4536 9.86686C16.4536 9.37584 16.1847 8.87122 15.7369 8.5406L11.7684 5.75137C10.9119 5.11815 9.05078 5.63924 9.05078 6.91434V12.5122C9.05078 13.4081 9.97247 13.9624 10.827 13.9624C11.1884 13.9624 11.5137 13.8633 11.7411 13.6939L15.946 10.8755C16.2687 10.6374 16.4536 10.2697 16.4536 9.86686ZM10.9229 12.522C10.9148 12.5255 10.8825 12.5344 10.8273 12.5344C10.6845 12.5344 10.5496 12.4781 10.4877 12.4347V6.9918C10.5493 6.94845 10.6845 6.89209 10.8273 6.89209C10.8828 6.89209 10.9151 6.90105 10.9253 6.90741L14.8932 9.69577C14.9336 9.72583 14.9647 9.76397 14.9862 9.79837L10.9229 12.522Z" fill="black"/>
<path d="M19.4655 23.6366C22.6341 23.6366 25.2122 21.0743 25.2122 17.9247C25.2122 14.775 22.6341 12.2124 19.4655 12.2124C16.2969 12.2124 13.7188 14.775 13.7188 17.9247C13.719 21.0743 16.2969 23.6366 19.4655 23.6366ZM19.4655 13.6404C21.8421 13.6404 23.7756 15.562 23.7756 17.9247C23.7756 20.2873 21.8424 22.2089 19.4655 22.2089C17.0886 22.2089 15.1554 20.2873 15.1554 17.9247C15.1554 15.562 17.0889 13.6404 19.4655 13.6404Z" fill="black"/>
<path d="M21.9865 17.8724C21.9865 17.4776 21.6649 17.1582 21.268 17.1582H19.8314V15.7303C19.8314 15.3355 19.5099 15.0161 19.113 15.0161C18.7161 15.0161 18.3945 15.3355 18.3945 15.7303V18.5862H21.2677C21.6646 18.5862 21.9865 18.2669 21.9865 17.8724Z" fill="black"/>
</svg>
