<svg width="25" height="25" viewBox="0 0 25 25" fill="none" xmlns="http://www.w3.org/2000/svg">
<g clip-path="url(#clip0_863_28883)">
<path d="M21.5282 13.1942C21.1464 13.1942 20.8341 13.5067 20.8341 13.8887V22.7914C20.8341 22.9928 20.7439 23.1873 20.5842 23.347C20.376 23.5484 20.0776 23.6803 19.7583 23.6526C19.1545 23.6387 18.7519 23.1595 18.7519 22.7289V21.5276C18.7519 21.1456 18.4396 20.8331 18.0579 20.8331H3.48257V2.77756L11.1172 2.79145C11.499 2.79145 11.8113 2.47895 11.8113 2.09701V2.08312C11.8113 1.70117 11.499 1.38867 11.1172 1.38867H3.48257C2.71911 1.38867 2.09445 2.01367 2.09445 2.77756V20.8331H0.706329C0.324596 20.8331 0.0122681 21.1456 0.0122681 21.5276V22.5623C-0.119603 23.7081 0.824319 24.7428 2.23326 24.9928C2.27491 24.9998 2.33737 24.9998 2.37902 24.9998H19.446C19.4876 24.9998 19.5223 24.9998 19.564 24.9928C19.6195 24.9928 19.6681 24.9998 19.7236 24.9998H19.793C20.4524 24.9998 21.0909 24.7428 21.5559 24.3053C21.9862 23.8887 22.2222 23.3401 22.2222 22.7706V13.8887C22.2222 13.5067 21.9099 13.1942 21.5282 13.1942ZM2.42066 23.6109C1.86541 23.4998 1.33098 23.1317 1.39345 22.7081C1.40039 22.6734 1.40039 22.6387 1.40039 22.6039V22.222H17.3638V22.6873C17.3638 23.0137 17.4401 23.3262 17.572 23.6109H2.42066Z" fill="#333333"/>
<path d="M17.4028 11.1113H7.59891C7.23943 11.1113 6.94531 11.4238 6.94531 11.8058C6.94531 12.1877 7.23943 12.5002 7.59891 12.5002H17.4028C17.7623 12.5002 18.0564 12.1877 18.0564 11.8058C18.0564 11.4238 17.7623 11.1113 17.4028 11.1113Z" fill="#333333"/>
<path d="M17.4028 13.8887H7.59891C7.23943 13.8887 6.94531 14.2012 6.94531 14.5831C6.94531 14.9651 7.23943 15.2776 7.59891 15.2776H17.4028C17.7623 15.2776 18.0564 14.9651 18.0564 14.5831C18.0564 14.2012 17.7623 13.8887 17.4028 13.8887Z" fill="#333333"/>
<path d="M17.4028 16.667H7.59891C7.23943 16.667 6.94531 16.9795 6.94531 17.3614C6.94531 17.7434 7.23943 18.0559 7.59891 18.0559H17.4028C17.7623 18.0559 18.0564 17.7434 18.0564 17.3614C18.0564 16.9795 17.7623 16.667 17.4028 16.667Z" fill="#333333"/>
<g filter="url(#filter0_d_863_28883)">
<path d="M23.9119 0.686571L20.1616 0.0692871C19.9554 0.0188965 19.7492 0.00629882 19.5043 0C19.3045 0.00629882 19.0983 0.0188965 18.9179 0.0566894L15.1096 0.699169C14.491 0.831444 14.0528 1.34795 14.0464 1.97153V3.15571C14.0464 3.43285 14.0593 3.6974 14.0786 3.94306C14.1237 4.52885 14.2268 5.06425 14.3686 5.55556H7.58969C7.23528 5.55556 6.94531 5.839 6.94531 6.18544C6.94531 6.53187 7.23528 6.81532 7.58969 6.81532H14.8648C15.0194 7.12396 15.1998 7.4263 15.406 7.71605C15.4898 7.83573 15.5736 7.9554 15.6638 8.07508H7.58969C7.23528 8.07508 6.94531 8.35853 6.94531 8.70496C6.94531 9.0514 7.23528 9.33484 7.58969 9.33484H16.785C17.0041 9.5553 17.2361 9.77576 17.4745 9.99622C17.642 10.1474 17.8096 10.3049 17.9836 10.4497L18.1189 10.582C18.4991 10.9158 18.9888 11.1111 19.543 11.1111C19.7749 11.1111 20.0069 11.067 20.2196 10.9914C20.4838 10.9095 20.7286 10.7647 20.9348 10.582L21.0637 10.4623C21.2119 10.3238 21.3601 10.1915 21.5083 10.0529C23.5188 8.21995 25.0009 6.43109 25.0009 3.15571V1.97153C25.0009 1.34795 24.5627 0.831444 23.9119 0.686571ZM23.7121 3.15571C23.7121 5.36029 23.0226 6.72713 21.5083 8.28294C21.1281 8.67347 20.7028 9.07029 20.2196 9.49861C20.2131 9.49861 20.2002 9.52381 20.1938 9.53011L20.0585 9.64979C19.9167 9.78206 19.7298 9.85135 19.5172 9.85135C19.3239 9.85135 19.137 9.78206 18.9952 9.64979L18.8535 9.53011C18.4991 9.20887 18.1769 8.90653 17.8805 8.61048C17.6936 8.43411 17.5196 8.25775 17.365 8.08768C17.2425 7.9617 17.133 7.83573 17.0234 7.70975C16.6561 7.28773 16.3597 6.88461 16.1213 6.45629C16.0569 6.34291 15.9989 6.22953 15.9473 6.11615C15.8829 5.99647 15.8313 5.87679 15.7862 5.75712C15.5607 5.20912 15.4254 4.61703 15.3738 3.94936C15.348 3.7037 15.3352 3.43285 15.3352 3.15571V2.677L15.3545 1.93374L19.1563 1.29756C19.2788 1.27236 19.4012 1.25976 19.5365 1.25976C19.6525 1.25976 19.7749 1.27236 19.9167 1.30385L23.667 1.92744C23.667 1.92744 23.7121 1.94633 23.7121 1.97153V3.15571Z" fill="#333333"/>
</g>
</g>
<defs>
<filter id="filter0_d_863_28883" x="2.94531" y="0" width="26.0547" height="19.1113" filterUnits="userSpaceOnUse" color-interpolation-filters="sRGB">
<feFlood flood-opacity="0" result="BackgroundImageFix"/>
<feColorMatrix in="SourceAlpha" type="matrix" values="0 0 0 0 0 0 0 0 0 0 0 0 0 0 0 0 0 0 127 0" result="hardAlpha"/>
<feOffset dy="4"/>
<feGaussianBlur stdDeviation="2"/>
<feComposite in2="hardAlpha" operator="out"/>
<feColorMatrix type="matrix" values="0 0 0 0 0 0 0 0 0 0 0 0 0 0 0 0 0 0 0.25 0"/>
<feBlend mode="normal" in2="BackgroundImageFix" result="effect1_dropShadow_863_28883"/>
<feBlend mode="normal" in="SourceGraphic" in2="effect1_dropShadow_863_28883" result="shape"/>
</filter>
<clipPath id="clip0_863_28883">
<rect width="25" height="25" fill="white"/>
</clipPath>
</defs>
</svg>
