<svg width="25" height="25" viewBox="0 0 25 25" fill="none" xmlns="http://www.w3.org/2000/svg">
<path d="M11.8742 7.0249H5.32422V8.5749H11.8742V7.0249Z" fill="#333333"/>
<path d="M8.42344 18.8252H5.27344V20.3752H8.42344V18.8252Z" fill="#333333"/>
<path d="M8.37344 14.8999H5.27344V16.4249H8.37344V14.8999Z" fill="#333333"/>
<path d="M9.97578 11.1748H5.30078V12.6248H9.97578V11.1748Z" fill="#333333"/>
<path d="M20.6984 11.9751V4.5251L16.5234 0.350098H1.52344V24.5501H15.4984C15.7984 24.6001 16.1234 24.6251 16.4234 24.6251C20.2984 24.6251 23.4734 21.4751 23.4734 17.5751C23.4734 15.3001 22.3734 13.2751 20.6984 11.9751ZM16.0734 1.5751L19.4484 4.9501H16.0734V1.5751ZM2.94844 23.1501V1.7501H14.9484V6.1251H19.3234V11.1251C18.4484 10.7251 17.4734 10.5001 16.4484 10.5001C12.5734 10.5001 9.39844 13.6501 9.39844 17.5501C9.39844 19.8251 10.4984 21.8501 12.1734 23.1501H2.94844ZM16.4234 23.3001C13.2484 23.3001 10.6734 20.7251 10.6734 17.5501C10.6734 14.3751 13.2484 11.8001 16.4234 11.8001C19.5984 11.8001 22.1734 14.3751 22.1734 17.5501C22.1484 20.7251 19.5734 23.3001 16.4234 23.3001Z" fill="#333333"/>
<path d="M16.4258 14.1001C15.1758 14.1001 14.1758 15.1001 14.1758 16.3501H15.4508C15.4508 15.8251 15.8758 15.3751 16.4258 15.3751C16.9508 15.3751 17.4008 15.8001 17.4008 16.3501C17.4008 16.9001 16.9758 17.3251 16.4258 17.3251H15.7758V19.1501H17.0508V18.5001C17.9758 18.2251 18.6508 17.3501 18.6508 16.3501C18.6758 15.1001 17.6508 14.1001 16.4258 14.1001Z" fill="#333333"/>
<path d="M17.0484 19.9502H15.7734V21.0502H17.0484V19.9502Z" fill="#333333"/>
</svg>
