<svg width="40" height="40" viewBox="0 0 40 40" fill="none" xmlns="http://www.w3.org/2000/svg">
<path d="M28.385 27.8802C28.0396 27.8802 27.76 28.1598 27.76 28.5052V35.625C27.76 36.6589 26.9189 37.5 25.885 37.5H9.54529V32.3297C9.54529 31.2958 8.70423 30.4547 7.67029 30.4547H2.5V4.375C2.5 3.34106 3.34106 2.5 4.375 2.5H25.885C26.9189 2.5 27.76 3.34106 27.76 4.375V7.36999C27.76 7.71545 28.0396 7.99499 28.385 7.99499C28.7305 7.99499 29.01 7.71545 29.01 7.36999V4.375C29.01 2.65198 27.608 1.25 25.885 1.25H4.375C2.65198 1.25 1.25 2.65198 1.25 4.375V31.0797C1.25 31.2457 1.31592 31.4044 1.43311 31.5216L8.47839 38.5669C8.59558 38.6841 8.75427 38.75 8.92029 38.75H25.885C27.608 38.75 29.01 37.348 29.01 35.625V28.5052C29.01 28.1598 28.7305 27.8802 28.385 27.8802ZM8.29529 32.3297V36.6162L3.38379 31.7047H7.67029C8.01514 31.7047 8.29529 31.9849 8.29529 32.3297Z" fill="black"/>
<path d="M29.0444 12.8928C26.6079 10.4563 22.6418 10.4563 20.2053 12.8928C17.7688 15.33 17.7688 19.2948 20.2053 21.7319C21.4236 22.9502 23.0245 23.5593 24.6249 23.5593C26.2252 23.5593 27.8262 22.9502 29.0444 21.7319C31.481 19.2948 31.481 15.33 29.0444 12.8928ZM28.1606 20.8481C26.2112 22.7964 23.0386 22.7964 21.0891 20.8481C19.1403 18.8987 19.1403 15.7261 21.0891 13.7766C22.0638 12.8019 23.3444 12.3148 24.6249 12.3148C25.9054 12.3148 27.1859 12.8025 28.1607 13.7766C30.1095 15.7261 30.1095 18.8987 28.1606 20.8481Z" fill="black"/>
<path d="M37.7347 26.248L32.2998 21.5144C32.9996 20.2406 33.375 18.8061 33.375 17.3125C33.375 14.9755 32.465 12.7782 30.8121 11.1254C29.1593 9.47254 26.962 8.5625 24.625 8.5625C22.288 8.5625 20.0907 9.47253 18.4379 11.1254C16.785 12.7782 15.875 14.9755 15.875 17.3125C15.875 19.6495 16.785 21.8468 18.4379 23.4996C20.0907 25.1525 22.288 26.0625 24.625 26.0625C26.1185 26.0625 27.553 25.6871 28.8267 24.9874L33.5606 30.4222C34.1185 31.0636 34.9402 31.4376 35.7902 31.4373C36.5714 31.4373 37.3295 31.1248 37.8831 30.5706C38.4605 29.9932 38.776 29.1936 38.7479 28.377C38.7199 27.5609 38.3506 26.7845 37.7347 26.248ZM19.3216 22.6158C17.905 21.1992 17.125 19.3157 17.125 17.3125C17.125 15.3093 17.905 13.4258 19.3216 12.0092C20.7383 10.5925 22.6218 9.8125 24.625 9.8125C26.6282 9.8125 28.5117 10.5925 29.9283 12.0092C31.345 13.4258 32.125 15.3093 32.125 17.3125C32.125 19.3157 31.345 21.1992 29.9283 22.6158C28.5117 24.0325 26.6282 24.8125 24.625 24.8125C22.6218 24.8125 20.7383 24.0325 19.3216 22.6158ZM36.9993 29.6868C36.6605 30.0249 36.2082 30.2007 35.7328 30.186C35.2543 30.1696 34.8173 29.962 34.5029 29.6007L29.8825 24.2961C30.206 24.0514 30.5202 23.7915 30.8121 23.4996C31.104 23.2078 31.3639 22.8937 31.6085 22.5701L36.9132 27.1904C37.2745 27.5048 37.4821 27.9418 37.4985 28.4203C37.515 28.8982 37.3374 29.348 36.9993 29.6868Z" fill="black"/>
<path d="M19.6279 7.229C19.6279 6.88355 19.3484 6.604 19.0029 6.604H6.36133C6.01587 6.604 5.73633 6.88355 5.73633 7.229C5.73633 7.57446 6.01587 7.854 6.36133 7.854H19.0029C19.3484 7.854 19.6279 7.57446 19.6279 7.229Z" fill="black"/>
<path d="M12.7529 11.0649H6.36133C6.01587 11.0649 5.73633 11.3445 5.73633 11.6899C5.73633 12.0354 6.01587 12.3149 6.36133 12.3149H12.7529C13.0984 12.3149 13.3779 12.0354 13.3779 11.6899C13.3779 11.3445 13.0984 11.0649 12.7529 11.0649Z" fill="black"/>
<path d="M12.7529 15.5264H6.36133C6.01587 15.5264 5.73633 15.8059 5.73633 16.1514C5.73633 16.4968 6.01587 16.7764 6.36133 16.7764H12.7529C13.0984 16.7764 13.3779 16.4968 13.3779 16.1514C13.3779 15.8059 13.0984 15.5264 12.7529 15.5264Z" fill="black"/>
<path d="M12.7529 19.9873H6.36133C6.01587 19.9873 5.73633 20.2668 5.73633 20.6123C5.73633 20.9578 6.01587 21.2373 6.36133 21.2373H12.7529C13.0984 21.2373 13.3779 20.9578 13.3779 20.6123C13.3779 20.2668 13.0984 19.9873 12.7529 19.9873Z" fill="black"/>
<path d="M12.7529 24.4482H6.36133C6.01587 24.4482 5.73633 24.7278 5.73633 25.0732C5.73633 25.4187 6.01587 25.6982 6.36133 25.6982H12.7529C13.0984 25.6982 13.3779 25.4187 13.3779 25.0732C13.3779 24.7278 13.0984 24.4482 12.7529 24.4482Z" fill="black"/>
</svg>
