<svg width="25" height="25" viewBox="0 0 25 25" fill="none" xmlns="http://www.w3.org/2000/svg">
<path d="M5.24949 14.8054C4.49913 15.0661 3.86667 15.5793 3.46392 16.2542C3.06116 16.9291 2.91403 17.7223 3.04854 18.4936C3.18306 19.2649 3.59055 19.9645 4.19899 20.4689C4.80743 20.9733 5.57764 21.25 6.37347 21.25C7.1693 21.25 7.93951 20.9733 8.54795 20.4689C9.15639 19.9645 9.56388 19.2649 9.69839 18.4936C9.8329 17.7223 9.68578 16.9291 9.28302 16.2542C8.88026 15.5793 8.2478 15.0661 7.49744 14.8054L7.29503 14.736V10.267L7.50051 10.1946C8.25087 9.9339 8.88333 9.42073 9.28608 8.74581C9.68884 8.07089 9.83597 7.27769 9.70146 6.50642C9.56694 5.73515 9.15945 5.03547 8.55101 4.53106C7.94257 4.02665 7.17236 3.75 6.37653 3.75C5.5807 3.75 4.81049 4.02665 4.20206 4.53106C3.59362 5.03547 3.18612 5.73515 3.05161 6.50642C2.9171 7.27769 3.06422 8.07089 3.46698 8.74581C3.86974 9.42073 4.5022 9.9339 5.25256 10.1946L5.45803 10.267V14.736L5.24949 14.8054ZM4.84161 7.07356C4.84161 6.77535 4.93154 6.48384 5.10003 6.23589C5.26852 5.98794 5.50801 5.79469 5.7882 5.68057C6.06839 5.56645 6.3767 5.53659 6.67415 5.59477C6.9716 5.65294 7.24482 5.79655 7.45927 6.00741C7.67372 6.21827 7.81976 6.48693 7.87893 6.77941C7.93809 7.07189 7.90773 7.37505 7.79167 7.65056C7.67561 7.92606 7.47907 8.16154 7.22691 8.32722C6.97474 8.49289 6.67828 8.58132 6.375 8.58132C5.96832 8.58132 5.5783 8.42247 5.29073 8.13971C5.00316 7.85695 4.84161 7.47344 4.84161 7.07356ZM6.375 16.4217C6.67828 16.4217 6.97474 16.5101 7.22691 16.6758C7.47907 16.8415 7.67561 17.077 7.79167 17.3525C7.90773 17.628 7.93809 17.9311 7.87893 18.2236C7.81976 18.5161 7.67372 18.7847 7.45927 18.9956C7.24482 19.2065 6.9716 19.3501 6.67415 19.4082C6.3767 19.4664 6.06839 19.4366 5.7882 19.3224C5.50801 19.2083 5.26852 19.0151 5.10003 18.7671C4.93154 18.5192 4.84161 18.2277 4.84161 17.9295C4.84161 17.5296 5.00316 17.1461 5.29073 16.8633C5.5783 16.5805 5.96832 16.4217 6.375 16.4217Z" fill="#333333"/>
<path d="M20.8548 4.25H13.3952C13.1577 4.25 12.9301 4.34219 12.7622 4.50628C12.5943 4.67038 12.5 4.89294 12.5 5.125C12.5 5.35706 12.5943 5.57962 12.7622 5.74372C12.9301 5.90781 13.1577 6 13.3952 6H20.8548C21.0923 6 21.3199 5.90781 21.4878 5.74372C21.6557 5.57962 21.75 5.35706 21.75 5.125C21.75 4.89294 21.6557 4.67038 21.4878 4.50628C21.3199 4.34219 21.0923 4.25 20.8548 4.25Z" fill="#333333"/>
<path d="M20.8548 9.25H13.3952C13.1577 9.25 12.9301 9.34219 12.7622 9.50628C12.5943 9.67038 12.5 9.89294 12.5 10.125C12.5 10.3571 12.5943 10.5796 12.7622 10.7437C12.9301 10.9078 13.1577 11 13.3952 11H20.8548C21.0923 11 21.3199 10.9078 21.4878 10.7437C21.6557 10.5796 21.75 10.3571 21.75 10.125C21.75 9.89294 21.6557 9.67038 21.4878 9.50628C21.3199 9.34219 21.0923 9.25 20.8548 9.25Z" fill="#333333"/>
<path d="M20.8548 14H13.3952C13.1577 14 12.9301 14.0922 12.7622 14.2563C12.5943 14.4204 12.5 14.6429 12.5 14.875C12.5 15.1071 12.5943 15.3296 12.7622 15.4937C12.9301 15.6578 13.1577 15.75 13.3952 15.75H20.8548C21.0923 15.75 21.3199 15.6578 21.4878 15.4937C21.6557 15.3296 21.75 15.1071 21.75 14.875C21.75 14.6429 21.6557 14.4204 21.4878 14.2563C21.3199 14.0922 21.0923 14 20.8548 14Z" fill="#333333"/>
<path d="M20.8548 19H13.3952C13.1577 19 12.9301 19.0922 12.7622 19.2563C12.5943 19.4204 12.5 19.6429 12.5 19.875C12.5 20.1071 12.5943 20.3296 12.7622 20.4937C12.9301 20.6578 13.1577 20.75 13.3952 20.75H20.8548C21.0923 20.75 21.3199 20.6578 21.4878 20.4937C21.6557 20.3296 21.75 20.1071 21.75 19.875C21.75 19.6429 21.6557 19.4204 21.4878 19.2563C21.3199 19.0922 21.0923 19 20.8548 19Z" fill="#333333"/>
</svg>
