<svg width="25" height="25" viewBox="0 0 25 25" fill="none" xmlns="http://www.w3.org/2000/svg">
<path d="M14.5846 2.08301H6.2513C5.69877 2.08301 5.16886 2.3025 4.77816 2.6932C4.38746 3.0839 4.16797 3.61381 4.16797 4.16634V20.833C4.16797 21.3855 4.38746 21.9154 4.77816 22.3061C5.16886 22.6968 5.69877 22.9163 6.2513 22.9163H18.7513C19.3038 22.9163 19.8337 22.6968 20.2244 22.3061C20.6151 21.9154 20.8346 21.3855 20.8346 20.833V8.33301L14.5846 2.08301Z" stroke="#333333" stroke-width="1.5" stroke-linecap="round" stroke-linejoin="round"/>
<path d="M14.582 2.08301V8.33301H20.832" stroke="#333333" stroke-width="1.5" stroke-linecap="round" stroke-linejoin="round"/>
<path d="M16.6654 13.542H8.33203" stroke="#333333" stroke-width="1.5" stroke-linecap="round" stroke-linejoin="round"/>
<path d="M16.6654 17.708H8.33203" stroke="#333333" stroke-width="1.5" stroke-linecap="round" stroke-linejoin="round"/>
<path d="M10.4154 9.375H9.3737H8.33203" stroke="#333333" stroke-width="1.5" stroke-linecap="round" stroke-linejoin="round"/>
</svg>
