<svg width="27" height="27" viewBox="0 0 27 27" fill="none" xmlns="http://www.w3.org/2000/svg">
<path d="M13.4977 25.6501C20.1973 25.6501 25.6477 20.1997 25.6477 13.5001C25.6477 6.80059 20.1973 1.3501 13.4977 1.3501C6.79828 1.3501 1.34766 6.80059 1.34766 13.5001C1.34766 20.1997 6.79828 25.6501 13.4977 25.6501ZM13.4977 3.21927C19.1663 3.21927 23.7785 7.83128 23.7785 13.5001C23.7785 19.1688 19.1663 23.7808 13.4977 23.7808C7.82871 23.7808 3.21683 19.1688 3.21683 13.5001C3.21683 7.83128 7.82871 3.21927 13.4977 3.21927Z" fill="black"/>
<path d="M10.4562 18.691L18.4133 13.9168C18.7967 13.6866 18.7967 13.3135 18.4133 13.0833L10.4562 8.30915C10.0726 8.07896 9.76172 8.25496 9.76172 8.70241V18.2977C9.76172 18.7451 10.0726 18.9211 10.4562 18.691Z" fill="black"/>
</svg>
